<svg width="16" height="16" viewBox="0 0 16 16" fill="none" xmlns="http://www.w3.org/2000/svg">
<path d="M12.207 4.79279C12.3945 4.98031 12.4998 5.23462 12.4998 5.49979C12.4998 5.76495 12.3945 6.01926 12.207 6.20679L7.20704 11.2068C7.01951 11.3943 6.76521 11.4996 6.50004 11.4996C6.23488 11.4996 5.98057 11.3943 5.79304 11.2068L3.79304 9.20679C3.61088 9.01818 3.51009 8.76558 3.51237 8.50339C3.51465 8.24119 3.61981 7.99038 3.80522 7.80497C3.99063 7.61956 4.24144 7.51439 4.50364 7.51211C4.76584 7.50983 5.01844 7.61063 5.20704 7.79279L6.50004 9.08579L10.793 4.79279C10.9806 4.60532 11.2349 4.5 11.5 4.5C11.7652 4.5 12.0195 4.60532 12.207 4.79279Z" fill="white"/>
</svg>
